<?xml version="1.0" standalone="no"?>
<!DOCTYPE svg PUBLIC "-//W3C//DTD SVG 20010904//EN"
 "http://www.w3.org/TR/2001/REC-SVG-20010904/DTD/svg10.dtd">
<svg version="1.0" xmlns="http://www.w3.org/2000/svg"
 width="563.000000pt" height="306.000000pt" viewBox="0 0 563.000000 306.000000"
 preserveAspectRatio="xMidYMid meet">

<g transform="translate(0.000000,306.000000) scale(0.100000,-0.100000)"
fill="#000000" stroke="none">
<path d="M1205 2262 c-12 -90 -47 -188 -125 -352 -44 -91 -90 -205 -104 -255
-13 -49 -25 -83 -25 -75 -2 39 44 260 84 404 5 15 4 17 -3 7 -8 -11 -34 -11
-148 -3 -77 5 -140 8 -142 7 -2 -2 8 -25 21 -52 75 -148 106 -293 111 -521 2
-89 5 -165 8 -167 3 -3 11 28 18 67 7 40 31 120 53 178 33 86 49 113 88 151
141 137 336 218 573 239 68 6 150 17 181 25 31 8 58 15 60 15 13 0 -2 31 -81
162 -47 79 -88 145 -91 148 -2 3 -14 -9 -26 -25 -59 -83 -159 -172 -292 -260
-77 -50 -170 -119 -205 -151 l-64 -59 62 81 c74 97 270 314 283 314 5 0 9 6 9
13 0 6 -54 44 -119 84 l-120 72 -6 -47z m-258 -724 c-3 -8 -6 -5 -6 6 -1 11 2
17 5 13 3 -3 4 -12 1 -19z"/>
<path d="M640 1538 c-69 -29 -126 -53 -128 -54 -2 -1 6 -20 17 -43 14 -26 40
-52 74 -74 94 -60 175 -145 254 -266 42 -64 99 -143 127 -176 l51 -60 -55 44
c-30 25 -93 80 -140 122 l-86 77 -67 -97 c-37 -53 -67 -100 -67 -106 0 -17
173 -120 267 -160 128 -54 260 -85 388 -92 61 -3 107 -2 103 2 -4 4 -37 7 -73
6 l-65 -1 0 29 c0 23 -8 34 -37 52 -57 34 -163 121 -163 133 0 6 -13 25 -29
42 -58 62 -157 323 -200 529 -30 144 -31 145 -39 144 -4 0 -63 -23 -132 -51z"/>
<path d="M1721 1451 c-38 -31 -27 -54 13 -28 20 14 25 14 38 1 8 -8 22 -12 31
-8 16 6 16 8 0 35 -22 36 -39 36 -82 0z"/>
<path d="M2812 1450 c-26 -24 -30 -32 -17 -36 8 -4 26 1 39 10 21 13 25 13 30
1 6 -17 15 -18 33 -7 10 7 10 14 0 35 -16 35 -44 34 -85 -3z"/>
<path d="M1295 1274 c-22 -65 -41 -121 -43 -126 -2 -4 14 -8 36 -8 l39 0 17
60 c9 34 20 59 25 56 5 -3 19 -31 31 -61 22 -54 24 -56 58 -53 l34 3 44 123
43 122 -38 0 -39 0 -17 -65 c-10 -36 -21 -65 -25 -65 -3 0 -18 28 -32 63 -24
57 -28 62 -59 65 l-34 3 -40 -117z"/>
<path d="M1665 1374 c-48 -26 -76 -56 -97 -101 -45 -101 44 -166 158 -114 83
38 130 147 87 200 -25 31 -104 39 -148 15z m83 -71 c30 -57 -78 -125 -112 -71
-7 12 -6 24 3 41 24 44 92 62 109 30z"/>
<path d="M1855 1274 c-22 -65 -41 -121 -43 -126 -2 -4 14 -8 36 -8 l39 0 17
60 c9 34 20 59 25 56 5 -3 19 -31 31 -61 22 -54 24 -56 58 -53 l34 3 44 123
43 122 -38 0 -39 0 -17 -65 c-10 -36 -21 -65 -25 -65 -3 0 -18 28 -32 63 -24
57 -28 62 -59 65 l-34 3 -40 -117z"/>
<path d="M2225 1376 c-74 -32 -129 -129 -105 -186 16 -38 51 -50 135 -48 l70
3 21 62 20 63 -42 0 c-39 0 -43 -2 -46 -27 -2 -23 -9 -29 -34 -31 -57 -6 -69
44 -21 88 23 22 67 26 85 8 10 -10 18 -6 40 15 l27 28 -24 20 c-27 22 -82 24
-126 5z"/>
<path d="M2484 1278 c-20 -62 -39 -119 -42 -125 -3 -10 17 -13 82 -13 85 0 86
0 101 30 l16 30 -56 0 -55 0 35 95 34 95 -39 0 -38 0 -38 -112z"/>
<path d="M2708 1268 l-86 -123 37 -3 c27 -3 39 1 50 17 19 30 91 30 91 1 0
-17 7 -20 40 -20 l40 0 0 43 c0 23 -3 79 -7 125 l-6 82 -37 0 c-35 0 -39 -4
-122 -122z m92 -3 c0 -18 -5 -25 -20 -25 -20 0 -20 1 -4 25 9 14 18 25 20 25
2 0 4 -11 4 -25z"/>
<path d="M2945 1283 c-20 -60 -39 -116 -42 -125 -4 -15 1 -18 30 -18 34 0 36
2 54 53 16 48 18 49 21 22 8 -89 22 -95 70 -29 39 52 49 53 27 1 -20 -48 -20
-47 23 -47 l37 0 40 117 c22 64 42 120 43 125 2 4 -12 8 -32 8 -31 0 -41 -7
-88 -65 -56 -68 -66 -68 -67 2 -1 51 -10 63 -46 63 -33 0 -33 0 -70 -107z"/>
<path d="M650 1226 c0 -2 8 -10 18 -17 15 -13 16 -12 3 4 -13 16 -21 21 -21
13z"/>
<path d="M690 1177 c0 -2 15 -16 33 -33 l32 -29 -29 33 c-28 30 -36 37 -36 29z"/>
</g>
</svg>
